<?xml version="1.0" encoding="UTF-8"?>
<svg id="Layer_2" xmlns="http://www.w3.org/2000/svg" viewBox="0 0 25.39 27.06">
  <defs>
    <style>
      .cls-1 {
        stroke-width: .58px;
      }

      .cls-1, .cls-2 {
        fill: none;
        stroke: #2a3b54;
        stroke-linecap: round;
        stroke-linejoin: round;
      }

      .cls-2 {
        stroke-width: .58px;
      }
    </style>
  </defs>
  <g id="graphics">
    <g>
      <path class="cls-1" d="M15.75,3.12c1.41,2.41,2.32,6.2,2.32,10.45,0,7.29-2.67,13.2-5.96,13.2-2.82,0-5.18-4.34-5.8-10.17"/>
      <path class="cls-1" d="M6.17,14.7c-.02-.38-.02-.76-.02-1.14C6.15,6.27,8.82.36,12.11.36c.52,0,1.02.14,1.49.42"/>
      <path class="cls-1" d="M22.43,21.25c-2.56,1.49-7.98.55-13.3-2.52-1.05-.6-2.02-1.25-2.91-1.92"/>
      <path class="cls-1" d="M3.79,14.72C.9,11.86-.42,8.87.68,6.96c1.65-2.85,8.1-2.21,14.41,1.44,5.23,3.02,8.72,7.15,8.83,10.1"/>
      <ellipse class="cls-2" cx="12.11" cy="13.58" rx="13.2" ry="5.96" transform="translate(-5.17 7.88) rotate(-30.01)"/>
      <circle class="cls-1" cx="14.91" cy="1.85" r="1.56"/>
      <circle class="cls-1" cx="23.54" cy="20.16" r="1.56"/>
      <circle class="cls-1" cx="4.96" cy="15.78" r="1.56"/>
    </g>
  </g>
</svg>