<?xml version="1.0" encoding="UTF-8"?>
<svg id="Layer_2" xmlns="http://www.w3.org/2000/svg" viewBox="0 0 30.54 15.45">
  <defs>
    <style>
      .cls-1 {
        fill: none;
        stroke: #2a3b54;
        stroke-linecap: round;
        stroke-linejoin: round;
        stroke-width: .58px;
      }
    </style>
  </defs>
  <g id="graphics">
    <g>
      <circle class="cls-1" cx="23.05" cy="11.75" r="3.41"/>
      <circle class="cls-1" cx="23.05" cy="11.75" r="1.33"/>
      <circle class="cls-1" cx="6.82" cy="11.75" r="3.41"/>
      <circle class="cls-1" cx="6.82" cy="11.75" r="1.33"/>
      <path class="cls-1" d="M3.41,12.7h-.71c-1.33,0-2.41-1.08-2.41-2.41"/>
      <line class="cls-1" x1="19.6" y1="12.7" x2="10.65" y2="12.7"/>
      <path class="cls-1" d="M30.25,10.14v.14c0,1.33-1.08,2.41-2.42,2.41h-1.21"/>
      <path class="cls-1" d="M26.09,10.14h4.16v-2.43c0-1.54-.62-3.03-1.71-4.12l-1.59-1.6c-1.09-1.09-2.58-1.71-4.12-1.71h-6.6c-1.54,0-3.02.64-4.07,1.76l-2.44,2.6c-.53.56-1.27.88-2.04.88h-2.77C2.36,5.53.29,7.59.29,10.14h3.44"/>
      <line class="cls-1" x1="10.01" y1="10.14" x2="20.02" y2="10.14"/>
      <path class="cls-1" d="M8.11,5.53h13.01c1.04,0,1.67-1.15,1.1-2.02l-2.36-2.98"/>
      <line class="cls-1" x1="23.36" y1="2.3" x2="24.69" y2="2.3"/>
      <line class="cls-1" x1="17.71" y1="7.14" x2="19.04" y2="7.14"/>
      <line class="cls-1" x1="23.92" y1="3.71" x2="25.68" y2="3.71"/>
      <line class="cls-1" x1="24.44" y1="5.13" x2="27.05" y2="5.13"/>
      <line class="cls-1" x1="2.83" y1="8.19" x2=".86" y2="8.19"/>
    </g>
  </g>
</svg>