<?xml version="1.0" encoding="UTF-8"?>
<svg id="Layer_2" xmlns="http://www.w3.org/2000/svg" viewBox="0 0 16.78 29.14">
  <defs>
    <style>
      .cls-1 {
        fill: none;
        stroke: #2a3b54;
        stroke-linecap: round;
        stroke-linejoin: round;
        stroke-width: .58px;
      }
    </style>
  </defs>
  <g id="graphics">
    <g>
      <g>
        <path class="cls-1" d="M6.55,24.39h-1.79C2.19,19.9.03,10.8,6.94,1.04,7.65.04,9.13.04,9.84,1.04c6.91,9.76,4.75,18.86,2.19,23.35h-1.81"/>
        <path class="cls-1" d="M2.59,18.25l-.43.43c-1.19,1.19-1.86,2.82-1.86,4.51v5.66l4.46-4.46"/>
        <path class="cls-1" d="M14.19,18.25l.43.43c1.19,1.19,1.86,2.82,1.86,4.51v5.66l-4.46-4.46"/>
      </g>
      <path class="cls-1" d="M9.56,28.85c.39-1.14.63-2.83.63-4.71,0-3.42-.81-6.2-1.8-6.2s-1.8,2.78-1.8,6.2c0,1.89.25,3.58.63,4.71h2.33Z"/>
      <circle class="cls-1" cx="8.39" cy="11.16" r="2.69"/>
    </g>
  </g>
</svg>